#!OML:ASF H:\Dans Jumps\Project 1\Capture day 1\Session 1\subject.ASF
:FULLY-SPECIFIED
:DEGREES
324
root 0.205053 24.4412 -5.87344 9.83704 0.176949 -0.205733
lowerback 3.57842 0.699023 -1.97797
upperback 2.7796 0.878495 0.268023
thorax 0.812315 0.408363 1.35851
lowerneck -8.12986 -1.22774 -2.36051
upperneck 27.1915 -1.84911 2.15754
head 9.99549 -0.847466 0.965389
rclavicle 3.57812e-015 1.31695e-015
rhumerus -31.3484 -0.978117 -75.4098
rradius 39.6567
rwrist 21.2533
rhand -23.0412 -26.1276
rfingers 7.12502
rthumb 3.40331 -56.0802
lclavicle 3.57812e-015 1.31695e-015
lhumerus -24.7389 -11.4519 76.969
lradius 50.4918
lwrist 31.5555
lhand -28.3175 -12.4014
lfingers 7.12502
lthumb -1.69252 17.5717
rfemur -24.1203 -9.62567 19.779
rtibia 52.3501
rfoot 17.4015 -4.31474
rtoes 16.3859
lfemur -21.2722 11.4335 -17.3775
ltibia 33.4484
lfoot 24.2829 -2.07006
ltoes -0.806475
325
root 0.206801 24.5406 -5.728 10.1255 0.117817 -0.0969539
lowerback 3.56533 0.676699 -2.08671
upperback 2.76225 0.846188 0.240749
thorax 0.802075 0.39113 1.39247
lowerneck -8.25879 -1.1459 -2.3312
upperneck 27.3291 -1.71381 2.06365
head 10.066 -0.791754 0.942178
rclavicle -1.90709e-015 -4.69629e-015
rhumerus -31.0665 -1.32892 -75.6685
rradius 38.5765
rwrist 21.785
rhand -23.1457 -26.1759
rfingers 7.12502
rthumb 3.30235 -56.13
lclavicle -1.90709e-015 -4.69629e-015
lhumerus -25.096 -10.5335 77.444
lradius 49.5033
lwrist 31.1437
lhand -28.4473 -12.4905
lfingers 7.12502
lthumb -1.81789 17.4815
rfemur -25.2901 -9.55881 19.8373
rtibia 52.2123
rfoot 16.4988 -4.15395
rtoes 15.5611
lfemur -22.0402 11.532 -17.6369
ltibia 32.1364
lfoot 23.5228 -2.16804
ltoes -1.11808
326
root 0.208864 24.6264 -5.5816 10.3755 0.133118 -0.0317258
lowerback 3.58012 0.618905 -2.15669
upperback 2.75011 0.76701 0.243985
thorax 0.783668 0.350852 1.43709
lowerneck -8.3454 -1.05464 -2.29515
upperneck 27.3984 -1.56279 1.95636
head 10.1031 -0.73022 0.914696
rclavicle -8.19987e-015 9.29318e-015
rhumerus -30.787 -1.67707 -75.889
rradius 37.567
rwrist 22.3218
rhand -23.2201 -26.2317
rfingers 7.12502
rthumb 3.23051 -56.187
lclavicle -8.19987e-015 9.29318e-015
lhumerus -25.4516 -9.64036 77.9015
lradius 48.478
lwrist 30.7489
lhand -28.5556 -12.5435
lfingers 7.12502
lthumb -1.92254 17.4276
rfemur -26.2933 -9.5201 19.9322
rtibia 51.7907
rfoot 15.6825 -3.97539
rtoes 14.7433
lfemur -22.8047 11.6085 -17.8316
ltibia 30.8948
lfoot 22.7998 -2.38447
ltoes -1.3036
327
root 0.21106 24.6986 -5.43422 10.5693 0.223288 -0.00768099
lowerback 3.63881 0.533164 -2.18131
upperback 2.75297 0.650873 0.268483
thorax 0.758104 0.292548 1.47891
lowerneck -8.43325 -0.965216 -2.253
upperneck 27.4349 -1.41699 1.85582
head 10.1288 -0.669932 0.887848
rclavicle -2.98177e-016 -2.48481e-015
rhumerus -30.5283 -2.07256 -76.0724
rradius 36.6494
rwrist 22.8675
rhand -23.2752 -26.2868
rfingers 7.12502
rthumb 3.17738 -56.2428
lclavicle -2.98177e-016 -2.48481e-015
lhumerus -25.808 -8.79525 78.3376
lradius 47.4539
lwrist 30.3866
lhand -28.6327 -12.5721
lfingers 7.12502
lthumb -1.997 17.3983
rfemur -27.1127 -9.51155 20.0549
rtibia 51.1128
rfoot 14.9598 -3.79328
rtoes 14.0041
lfemur -23.5505 11.6473 -17.9578
ltibia 29.7495
lfoot 22.093 -2.65382
ltoes -1.41855
328
root 0.213165 24.7571 -5.28588 10.6973 0.362961 -0.014271
lowerback 3.74699 0.43336 -2.17054
upperback 2.77246 0.515971 0.303095
thorax 0.723165 0.225253 1.51175
lowerneck -8.50339 -0.888282 -2.21419
upperneck 27.433 -1.29409 1.7772
head 10.138 -0.618281 0.866692
rclavicle 7.52897e-015 1.16786e-015
rhumerus -30.3298 -2.52689 -76.2261
rradius 35.8687
rwrist 23.405
rhand -23.3251 -26.3224
rfingers 7.12502
rthumb 3.12911 -56.2792
lclavicle 7.52897e-015 1.16786e-015
lhumerus -26.1417 -8.03883 78.7504
lradius 46.4145
lwrist 30.0792
lhand -28.6783 -12.5914
lfingers 7.12502
lthumb -2.04102 17.3786
rfemur -27.7502 -9.51001 20.187
rtibia 50.2109
rfoot 14.3358 -3.62214
rtoes 13.3622
lfemur -24.2628 11.6379 -18.0212
ltibia 28.7093
lfoot 21.4238 -2.89671
ltoes -1.42248
329
root 0.214662 24.8021 -5.13741 10.7557 0.557844 -0.0362047
lowerback 3.91178 0.32614 -2.13357
upperback 2.80491 0.370883 0.338348
thorax 0.670645 0.153321 1.53098
lowerneck -8.56244 -0.823345 -2.17397
upperneck 27.4211 -1.19719 1.73087
head 10.1423 -0.574907 0.853847
rclavicle -1.99406e-015 -2.93207e-015
rhumerus -30.2119 -3.07265 -76.3473
rradius 35.2225
rwrist 23.9432
rhand -23.3684 -26.3284
rfingers 7.12502
rthumb 3.0873 -56.2858
lclavicle -1.99406e-015 -2.93207e-015
lhumerus -26.4699 -7.4034 79.1474
lradius 45.3939
lwrist 29.8252
lhand -28.665 -12.5641
lfingers 7.12502
lthumb -2.02816 17.406
rfemur -28.2129 -9.52266 20.3109
rtibia 49.1176
rfoot 13.8137 -3.48003
rtoes 12.833
lfemur -24.936 11.5597 -18.0305
ltibia 27.7733
lfoot 20.8092 -3.0675
ltoes -1.33873
330
root 0.215434 24.8336 -4.98821 10.7482 0.783511 -0.0643804
lowerback 4.11481 0.217554 -2.08737
upperback 2.85973 0.223849 0.372128
thorax 0.619941 0.0803464 1.54412
lowerneck -8.64061 -0.771532 -2.14097
upperneck 27.4182 -1.12573 1.71641
head 10.1544 -0.540328 0.850728
rclavicle 7.14382e-016 -3.03147e-015
rhumerus -30.165 -3.68492 -76.4425
rradius 34.7191
rwrist 24.4582
rhand -23.4146 -26.3002
rfingers 7.12502
rthumb 3.04273 -56.2582
lclavicle 7.14382e-016 -3.03147e-015
lhumerus -26.7887 -6.8702 79.5328
lradius 44.416
lwrist 29.5975
lhand -28.6074 -12.5151
lfingers 7.12502
lthumb -1.97254 17.4556
rfemur -28.5141 -9.53213 20.4108
rtibia 47.8611
rfoot 13.3882 -3.37571
rtoes 12.4085
lfemur -25.5579 11.415 -17.9933
ltibia 26.9315
lfoot 20.257 -3.1256
ltoes -1.16516
331
root 0.215124 24.8517 -4.83841 10.6818 1.02705 -0.0912513
lowerback 4.36115 0.115637 -2.04582
upperback 2.91897 0.0849362 0.403008
thorax 0.549336 0.011576 1.55727
lowerneck -8.71538 -0.732834 -2.10883
upperneck 27.4376 -1.0787 1.72371
head 10.1748 -0.514619 0.852917
rclavicle 2.41026e-015 -4.02539e-015
rhumerus -30.2226 -4.34401 -76.5099
rradius 34.3587
rwrist 24.9354
rhand -23.4617 -26.2511
rfingers 7.12502
rthumb 2.99726 -56.2098
lclavicle 2.41026e-015 -4.02539e-015
lhumerus -27.1275 -6.46417 79.9197
lradius 43.4961
lwrist 29.3931
lhand -28.5257 -12.4215
lfingers 7.12502
lthumb -1.8936 17.5498
rfemur -28.6728 -9.52263 20.477
rtibia 46.4667
rfoot 13.0684 -3.31517
rtoes 12.0213
lfemur -26.1271 11.208 -17.916
ltibia 26.1737
lfoot 19.7606 -3.06033
ltoes -0.98691
